<?xml version="1.0" encoding="utf-8" ?>
<svg baseProfile="full" height="200mm" version="1.1" viewBox="0,0,200,200" width="200mm" xmlns="http://www.w3.org/2000/svg" xmlns:ev="http://www.w3.org/2001/xml-events" xmlns:xlink="http://www.w3.org/1999/xlink"><defs /><rect fill="#1a1a1a" height="200" width="200" x="0" y="0" /><text alignment-baseline="middle" fill="#e1ed5e" style="dominant-baseline: central; font-size:9.0px; font-family:Arial;" text-anchor="middle" x="100.0" y="100.0">2013</text><line stroke="#e1ed5e" stroke-width="0.3" x1="100.0" x2="100.0" y1="15.0" y2="10.0" /><path d="M 100.0 14.0 a86.0,86.0 0 0,1 42.46469731375804,11.215312516191453" fill="none" id="id1" stroke="none" /><text fill="#e1ed5e" style="font-size:6.75px; font-family:Arial;" text-anchor="middle"><textPath startOffset="22.20632615414155" xlink:href="#id1">January</textPath></text><line stroke="#e1ed5e" stroke-width="0.3" x1="143.23703022742887" x2="145.7803849466894" y1="26.81831364943548" y2="22.513508569990506" /><path d="M 143.74570117128098 25.957352633546492 a86.0,86.0 0 0,1 28.547481713284135,27.462654790039103" fill="none" id="id2" stroke="none" /><text fill="#e1ed5e" style="font-size:6.75px; font-family:Arial;" text-anchor="middle"><textPath startOffset="19.985693538727396" xlink:href="#id2">February</textPath></text><line stroke="#e1ed5e" stroke-width="0.3" x1="172.23445277983987" x2="176.4835382374775" y1="55.19839476539836" y2="52.563006222186495" /><path d="M 173.08426987136738 54.67131705675599 a86.0,86.0 0 0,1 12.851231095245387,41.99856678651699" fill="none" id="id3" stroke="none" /><text fill="#e1ed5e" style="font-size:6.75px; font-family:Arial;" text-anchor="middle"><textPath startOffset="22.20632615414155" xlink:href="#id3">March</textPath></text><line stroke="#e1ed5e" stroke-width="0.3" x1="184.98032266829074" x2="189.97916517819016" y1="98.17113171792111" y2="98.06355123074" /><path d="M 185.9800911702706 98.14961562048488 a86.0,86.0 0 0,1 -9.607161424134198,41.387399972396054" fill="none" id="id4" stroke="none" /><text fill="#e1ed5e" style="font-size:6.75px; font-family:Arial;" text-anchor="middle"><textPath startOffset="21.466115282336823" xlink:href="#id4">April</textPath></text><line stroke="#e1ed5e" stroke-width="0.3" x1="174.80103733775053" x2="179.2010983576182" y1="140.37084112569926" y2="142.7455964860345" /><path d="M 175.68104954172406 140.8457921977663 a86.0,86.0 0 0,1 -30.038265399797805,32.042727171017184" fill="none" id="id5" stroke="none" /><text fill="#e1ed5e" style="font-size:6.75px; font-family:Arial;" text-anchor="middle"><textPath startOffset="22.206326154141568" xlink:href="#id5">May</textPath></text><line stroke="#e1ed5e" stroke-width="0.3" x1="143.8653032363475" x2="146.44561519142675" y1="172.8068346515853" y2="177.08958963109032" /><path d="M 144.38136562736335 173.6633856474863 a86.0,86.0 0 0,1 -40.68145358897372,12.25698825130547" fill="none" id="id6" stroke="none" /><text fill="#e1ed5e" style="font-size:6.75px; font-family:Arial;" text-anchor="middle"><textPath startOffset="21.466115282336833" xlink:href="#id6">June</textPath></text><line stroke="#e1ed5e" stroke-width="0.3" x1="102.19456741930631" x2="102.32365962044197" y1="184.97166512339345" y2="189.96999836594603" /><path d="M 102.22038585953345 185.97133177190398 a86.0,86.0 0 0,1 -42.740103519485714,-10.115201625700543" fill="none" id="id7" stroke="none" /><text fill="#e1ed5e" style="font-size:6.75px; font-family:Arial;" text-anchor="middle"><textPath startOffset="22.20632615414155" xlink:href="#id7">July</textPath></text><line stroke="#e1ed5e" stroke-width="0.3" x1="58.666819895761336" x2="56.23545636021788" y1="174.27360380694188" y2="178.64263932499728" /><path d="M 58.180547188652646 175.14741091055294 a86.0,86.0 0 0,1 -31.652253787137756,-30.449443065178592" fill="none" id="id8" stroke="none" /><text fill="#e1ed5e" style="font-size:6.75px; font-family:Arial;" text-anchor="middle"><textPath startOffset="22.20632615414155" xlink:href="#id8">August</textPath></text><line stroke="#e1ed5e" stroke-width="0.3" x1="26.63291911575756" x2="22.317208475507996" y1="142.92168965132927" y2="145.44649492493687" /><path d="M 25.769776987707644 143.4266507060508 a86.0,86.0 0 0,1 -11.730757126820373,-40.83630448921669" fill="none" id="id9" stroke="none" /><text fill="#e1ed5e" style="font-size:6.75px; font-family:Arial;" text-anchor="middle"><textPath startOffset="21.46611528233685" xlink:href="#id9">September</textPath></text><path d="M 80.45479744820244 107.68017299344265 l -8.323383299307832 3.2706247714755174 a29.942913168704358,29.942913168704358 0 0,0 -0.18437095039753906,-0.48133437267217544 l 8.37844852929888 -3.1268668319701844" fill="#ff2303" stroke="none" /><path d="M 80.32549172779594 107.34259656027581 l -10.997992041641199 4.104489800590523 a32.738938004400346,32.738938004400346 0 0,0 -0.1924983125713084,-0.5296726814607225 l 11.067014615217733 -3.914569322123683" fill="#ff4e07" stroke="none" /><path d="M 79.76711848015287 105.62410040840567 l -36.23883336761993 10.07324820950745 a58.61280863398091,58.61280863398091 0 0,0 -0.26183715852215117,-0.974393472674752 l 36.40685860248386 -9.447963803657158" fill="#58ff2a" stroke="none" /><path d="M 79.58551787078972 104.9243191809786 l -30.2767329298718 7.303261271105371 a52.14511489946395,52.14511489946395 0 0,0 -0.20296724673182662,-0.8743775867743384 l 30.39796074253418 -6.781015026982458" fill="#a4ff21" stroke="none" /><path d="M 79.35854240842038 103.8639653848113 l -38.365827644300005 7.181868301669042 a60.032242609599734,60.032242609599734 0 0,0 -0.18139330323504996,-1.0173499760091025 l 38.483767389874245 -6.520399574926726" fill="#48ff2c" stroke="none" /><path d="M 79.23777060512086 103.15116336523772 l -25.205055650620377 3.8254681842886615 a46.49370583457562,46.49370583457562 0 0,0 -0.11328069432291187,-0.792284912253055 l 25.267170395959887 -3.391037800055206" fill="#ecff1a" stroke="none" /><path d="M 79.18660465613746 102.79330883721812 l -30.351595126412914 4.0734045305719935 a51.62371550265213,51.62371550265213 0 0,0 -0.11061853736616357,-0.8817385813580564 l 30.417215173025923 -3.550348194926528" fill="#aaff21" stroke="none" /><path d="M 79.10278846688536 102.07522291339032 l -31.847229139622865 3.162627680435152 a53.003878166820634,53.003878166820634 0 0,0 -0.0823463297177731,-0.908684886626654 l 31.896950065617713 -2.6139614052599316" fill="#9aff23" stroke="none" /><line stroke="#e1ed5e" stroke-width="0.3" x1="15.007084014347285" x2="10.007500721073583" y1="101.09737516637583" y2="101.16192664675087" /><path d="M 14.007167355692545 101.11028546245083 a86.0,86.0 0 0,1 10.666146001902534,-42.60595125391555" fill="none" id="id10" stroke="none" /><text fill="#e1ed5e" style="font-size:6.75px; font-family:Arial;" text-anchor="middle"><textPath startOffset="22.20632615414155" xlink:href="#id10">October</textPath></text><path d="M 79.05617556472873 98.46500227214037 l -19.092347119808878 -1.39930075994425 a40.143556648649565,40.143556648649565 0 0,0 0.05644091577964944,-0.6887221321090283 l 19.06543172020973 1.7277368092610568" fill="#ffbb11" stroke="none" /><path d="M 79.08570108090925 98.10471618934814 l -10.882147512665842 -0.9861558393934234 a31.926739578986457,31.926739578986457 0 0,0 0.05431023358839755,-0.5468966405423221 l 10.863560153395216 1.1733280106401758" fill="#ff4206" stroke="none" /><path d="M 80.2630227832202 92.82701384747504 l -59.210931650339425 -21.518958457574875 a84.0,84.0 0 0,0 0.5055816459934896,-1.3547074518826343 l 58.83174541584431 22.534989046486853" fill="#4dd2ff" stroke="none" /><line stroke="#e1ed5e" stroke-width="0.3" x1="26.266209847984243" x2="21.928928074336255" y1="57.711370442889674" y2="55.22380399835377" /><path d="M 25.398753493254645 57.213857153982495 a86.0,86.0 0 0,1 29.58750427330803,-30.492523968695096" fill="none" id="id11" stroke="none" /><text fill="#e1ed5e" style="font-size:6.75px; font-family:Arial;" text-anchor="middle"><textPath startOffset="21.46611528233685" xlink:href="#id11">November</textPath></text><path d="M 87.22198572758235 83.33499621200491 l -4.116163814207597 -5.368274294688144 a27.764700543882302,27.764700543882302 0 0,0 0.38176971770440654,-0.2875410364586754 l 4.0231479427448 5.438331920652673" fill="#ff0000" stroke="none" /><line stroke="#e1ed5e" stroke-width="0.3" x1="56.762969772571076" x2="54.21961505331055" y1="26.818313649435495" y2="22.513508569990535" /><path d="M 56.25429882871897 25.957352633546506 a86.0,86.0 0 0,1 42.265352541879196,-11.944610805530505" fill="none" id="id12" stroke="none" /><text fill="#e1ed5e" style="font-size:6.75px; font-family:Arial;" text-anchor="middle"><textPath startOffset="22.20632615414155" xlink:href="#id12">December</textPath></text><path d="M 94.98787191387505 79.60689891045804 l -1.9608760643753058 -7.97831641924083 a29.21575120274268,29.21575120274268 0 0,0 0.4894004400343206,-0.11582527226207588 l 1.8232519373784513 8.010887603643777" fill="#ff1702" stroke="none" /></svg>