<?xml version="1.0" encoding="utf-8" ?>
<svg baseProfile="full" height="200mm" version="1.1" viewBox="0,0,200,200" width="200mm" xmlns="http://www.w3.org/2000/svg" xmlns:ev="http://www.w3.org/2001/xml-events" xmlns:xlink="http://www.w3.org/1999/xlink"><defs /><rect fill="#1a1a1a" height="200" width="200" x="0" y="0" /><text alignment-baseline="middle" fill="#e1ed5e" style="dominant-baseline: central; font-size:9.0px; font-family:Arial;" text-anchor="middle" x="100.0" y="100.0">2021</text><line stroke="#e1ed5e" stroke-width="0.3" x1="100.0" x2="100.0" y1="15.0" y2="10.0" /><path d="M 100.0 14.0 a86.0,86.0 0 0,1 42.46469731375804,11.215312516191453" fill="none" id="id97" stroke="none" /><text fill="#e1ed5e" style="font-size:6.75px; font-family:Arial;" text-anchor="middle"><textPath startOffset="22.20632615414155" xlink:href="#id97">January</textPath></text><line stroke="#e1ed5e" stroke-width="0.3" x1="143.23703022742887" x2="145.7803849466894" y1="26.81831364943548" y2="22.513508569990506" /><path d="M 143.74570117128098 25.957352633546492 a86.0,86.0 0 0,1 28.547481713284135,27.462654790039103" fill="none" id="id98" stroke="none" /><text fill="#e1ed5e" style="font-size:6.75px; font-family:Arial;" text-anchor="middle"><textPath startOffset="19.985693538727396" xlink:href="#id98">February</textPath></text><line stroke="#e1ed5e" stroke-width="0.3" x1="172.23445277983987" x2="176.4835382374775" y1="55.19839476539836" y2="52.563006222186495" /><path d="M 173.08426987136738 54.67131705675599 a86.0,86.0 0 0,1 12.851231095245387,41.99856678651699" fill="none" id="id99" stroke="none" /><text fill="#e1ed5e" style="font-size:6.75px; font-family:Arial;" text-anchor="middle"><textPath startOffset="22.20632615414155" xlink:href="#id99">March</textPath></text><line stroke="#e1ed5e" stroke-width="0.3" x1="184.98032266829074" x2="189.97916517819016" y1="98.17113171792111" y2="98.06355123074" /><path d="M 185.9800911702706 98.14961562048488 a86.0,86.0 0 0,1 -9.607161424134198,41.387399972396054" fill="none" id="id100" stroke="none" /><text fill="#e1ed5e" style="font-size:6.75px; font-family:Arial;" text-anchor="middle"><textPath startOffset="21.466115282336823" xlink:href="#id100">April</textPath></text><path d="M 120.5718875245553 104.21870165774334 l 5.392729550147892 1.1058935192900918 a26.504955265671658,26.504955265671658 0 0,0 -0.09550109136869905,0.44614930492417015 l -5.37289442005475 -1.1985566436304311" fill="#ff3b05" stroke="none" /><path d="M 120.41448212921028 104.9243191809786 l 10.168128773440488 2.452725042780714 a31.45976590984483,31.45976590984483 0 0,0 -0.13151483341953935,0.5253363849360683 l -10.124402625725889 -2.6273892671141783" fill="#ff800b" stroke="none" /><path d="M 120.13307415673323 105.97154293290107 l 6.584548016895599 1.953000861693579 a27.868077238396467,27.868077238396467 0 0,0 -0.1403664987406464,0.4587258394356959 l -6.5499547456488205 -2.066053673681332" fill="#ff4e07" stroke="none" /><path d="M 120.02730092923936 106.31721596034902 l 5.045127872034747 1.591385800204784 a26.290162947421873,26.290162947421873 0 0,0 -0.13984832967964606,0.4304089019565071 l -5.016987291338855 -1.6779936021390864" fill="#ff3805" stroke="none" /><path d="M 119.9155931802556 106.66101706037122 l 7.455625675789763 2.4936264450015226 a28.8615855312212,28.8615855312212 0 0,0 -0.16163748057084754,0.4697941793663953 l -7.411597364275685 -2.621593327457218" fill="#ff5c08" stroke="none" /><path d="M 119.26925614724726 108.34839909993367 l 8.608725622722012 3.729727639256865 a30.381952094865284,30.381952094865284 0 0,0 -0.21203552108428034,0.47808412430227165 l -8.54324901690646 -3.877360100051824" fill="#ff710a" stroke="none" /><line stroke="#e1ed5e" stroke-width="0.3" x1="174.80103733775053" x2="179.2010983576182" y1="140.37084112569926" y2="142.7455964860345" /><path d="M 175.68104954172406 140.8457921977663 a86.0,86.0 0 0,1 -30.038265399797805,32.042727171017184" fill="none" id="id101" stroke="none" /><text fill="#e1ed5e" style="font-size:6.75px; font-family:Arial;" text-anchor="middle"><textPath startOffset="22.206326154141568" xlink:href="#id101">May</textPath></text><line stroke="#e1ed5e" stroke-width="0.3" x1="143.8653032363475" x2="146.44561519142675" y1="172.8068346515853" y2="177.08958963109032" /><path d="M 144.38136562736335 173.6633856474863 a86.0,86.0 0 0,1 -40.68145358897372,12.25698825130547" fill="none" id="id102" stroke="none" /><text fill="#e1ed5e" style="font-size:6.75px; font-family:Arial;" text-anchor="middle"><textPath startOffset="21.466115282336833" xlink:href="#id102">June</textPath></text><path d="M 109.2508944713604 118.85261126421891 l 7.016172835878601 14.298420487542339 a36.92706845911988,36.92706845911988 0 0,0 -0.5730506580340635,0.2750991400874898 l -6.769009509844305 -14.41707390412939" fill="#ffc812" stroke="none" /><path d="M 107.2578585660854 119.70592522655815 l 18.573444711269158 50.42905002174647 a74.74069160829976,74.74069160829976 0 0,0 -1.2110854942528444,0.43425216988107956 l -17.70263965638658 -50.741289732667504" fill="#41ffd2" stroke="none" /><line stroke="#e1ed5e" stroke-width="0.3" x1="102.19456741930631" x2="102.32365962044197" y1="184.97166512339345" y2="189.96999836594603" /><path d="M 102.22038585953345 185.97133177190398 a86.0,86.0 0 0,1 -42.740103519485714,-10.115201625700543" fill="none" id="id103" stroke="none" /><text fill="#e1ed5e" style="font-size:6.75px; font-family:Arial;" text-anchor="middle"><textPath startOffset="22.20632615414155" xlink:href="#id103">July</textPath></text><path d="M 98.37488393609728 120.93702456842531 l -0.8317488018234135 10.715754699214871 a31.74798608312647,31.74798608312647 0 0,0 -0.5444865518143073,-0.04698059077046396 l 1.0160796713792624 -10.699849856165743" fill="#ff840c" stroke="none" /><line stroke="#e1ed5e" stroke-width="0.3" x1="58.666819895761336" x2="56.23545636021788" y1="174.27360380694188" y2="178.64263932499728" /><path d="M 58.180547188652646 175.14741091055294 a86.0,86.0 0 0,1 -31.652253787137756,-30.449443065178592" fill="none" id="id104" stroke="none" /><text fill="#e1ed5e" style="font-size:6.75px; font-family:Arial;" text-anchor="middle"><textPath startOffset="22.20632615414155" xlink:href="#id104">August</textPath></text><path d="M 89.4739219176387 118.17145234162733 l -1.8065348832524675 3.118669867129223 a24.604118480925372,24.604118480925372 0 0,0 -0.3646472464899206,-0.21544002065363335 l 1.85995000077077 -3.08711127418184" fill="#ff2003" stroke="none" /><path d="M 89.1626897886671 117.98757091392108 l -3.4583077080089333 5.740036404505545 a27.701336443450884,27.701336443450884 0 0,0 -0.40631370544076356,-0.24959106377944118 l 3.5566006133820056 -5.679656873897726" fill="#ff4c07" stroke="none" /><path d="M 88.8546689885994 117.79835938074946 l -3.1126544231914184 4.970704054942045 a26.864854334084555,26.864854334084555 0 0,0 -0.3898195238549592,-0.24880126379665402 l 3.1977557490933006 -4.9163883623215865" fill="#ff4006" stroke="none" /><path d="M 88.54995079064634 117.60387380957326 l -2.60504992981324 4.005133025507633 a25.777800298132174,25.777800298132174 0 0,0 -0.36988111622170383,-0.2451370348309427 l 2.6736057447749055 -3.959697969585372" fill="#ff3104" stroke="none" /><path d="M 87.95078237400918 117.19931262002967 l -5.874014715755522 8.384695053810706 a31.23753681440561,31.23753681440561 0 0,0 -0.43773111570447176,-0.31230952857318595 l 6.0174731593088815 -8.2823412633933" fill="#ff7d0b" stroke="none" /><path d="M 87.65650970185807 116.9893568818739 l -1.5382485402532704 2.117217479995776 a23.61702472842558,23.61702472842558 0 0,0 -0.3268315400036618,-0.2417821598561149 l 1.5744650506754965 -2.0904253713998946" fill="#ff1202" stroke="none" /><path d="M 87.36589467227662 116.77436683061367 l -3.4844935327736994 4.626380042074537 a26.79181210621057,26.79181210621057 0 0,0 -0.3659905335653439,-0.2806259345009333 l 3.56361279483253 -4.565714765746237" fill="#ff3f05" stroke="none" /><path d="M 87.07902340077011 116.55440617244103 l -6.345907761328311 8.130402048722557 a31.31377635927592,31.31377635927592 0 0,0 -0.4220537987246369,-0.33530506322043074 l 6.484919052770306 -8.019963071496996" fill="#ff7e0b" stroke="none" /><path d="M 86.79598089348748 116.32954008644616 l -5.3185820457120725 6.577542641972679 a29.45880500921612,29.45880500921612 0 0,0 -0.3915634502595035,-0.3222300620595942 l 5.431015624516264 -6.485017461055904" fill="#ff6409" stroke="none" /><path d="M 85.97065885151581 115.62618273729859 l -2.5279724946187025 2.8157102844451454 a24.78402818957244,24.78402818957244 0 0,0 -0.31499372808681236,-0.28773930217809374 l 2.5760657721723694 -2.771778215680476" fill="#ff2303" stroke="none" /><path d="M 85.18274418774928 114.88116024355367 l -4.221818201157336 4.240026221227171 a26.983441424491204,26.983441424491204 0 0,0 -0.32631894847687704,-0.33055937197934654 l 4.2941777746897465 -4.166726355267159" fill="#ff4206" stroke="none" /><path d="M 84.43433777217949 114.09645910891817 l -1.9482868717188317 1.7643930478293626 a23.628479515183738,23.628479515183738 0 0,0 -0.27042361655904446,-0.30382379994516534 l 1.9783693379262144 -1.7305950781433332" fill="#ff1202" stroke="none" /><path d="M 83.28015986056508 112.70617746262583 l -1.1246116813250724 0.8546442717329309 a22.41250425308341,22.41250425308341 0 0,0 -0.23078340618465595,-0.3091720866695772 l 1.1391563542048135 -0.8351593055540457" fill="#ff0000" stroke="none" /><path d="M 82.85270091963577 112.12312394758628 l -2.856342162692702 2.0194311601349146 a24.498112742737128,24.498112742737128 0 0,0 -0.2404770827156,-0.34642517328016575 l 2.890680152570436 -1.9699647246677363" fill="#ff1e03" stroke="none" /><line stroke="#e1ed5e" stroke-width="0.3" x1="26.63291911575756" x2="22.317208475507996" y1="142.92168965132927" y2="145.44649492493687" /><path d="M 25.769776987707644 143.4266507060508 a86.0,86.0 0 0,1 -11.730757126820373,-40.83630448921669" fill="none" id="id105" stroke="none" /><text fill="#e1ed5e" style="font-size:6.75px; font-family:Arial;" text-anchor="middle"><textPath startOffset="21.46611528233685" xlink:href="#id105">September</textPath></text><path d="M 80.73074385275274 108.34839909993369 l -4.155961413377951 1.8005689611303508 a25.52924539556784,25.52924539556784 0 0,0 -0.1712271030888836,-0.40473029203354544 l 4.186339497659142 -1.7287641434306467" fill="#ff2d04" stroke="none" /><path d="M 79.29508885075956 103.50808413554451 l -2.747688934199575 0.4655477094298154 a23.7868493229592,23.7868493229592 0 0,0 -0.0649247844030638,-0.40428669445343124 l 2.75529547296393 -0.41818178528317046" fill="#ff1402" stroke="none" /><line stroke="#e1ed5e" stroke-width="0.3" x1="15.007084014347285" x2="10.007500721073583" y1="101.09737516637583" y2="101.16192664675087" /><path d="M 14.007167355692545 101.11028546245083 a86.0,86.0 0 0,1 10.666146001902534,-42.60595125391555" fill="none" id="id106" stroke="none" /><text fill="#e1ed5e" style="font-size:6.75px; font-family:Arial;" text-anchor="middle"><textPath startOffset="22.20632615414155" xlink:href="#id106">October</textPath></text><line stroke="#e1ed5e" stroke-width="0.3" x1="26.266209847984243" x2="21.928928074336255" y1="57.711370442889674" y2="55.22380399835377" /><path d="M 25.398753493254645 57.213857153982495 a86.0,86.0 0 0,1 29.58750427330803,-30.492523968695096" fill="none" id="id107" stroke="none" /><text fill="#e1ed5e" style="font-size:6.75px; font-family:Arial;" text-anchor="middle"><textPath startOffset="21.46611528233685" xlink:href="#id107">November</textPath></text><path d="M 84.5562425177563 85.77008943001954 l -46.331272446731106 -42.68973170994139 a84.0,84.0 0 0,0 0.9889307121181763,-1.0549223324877994 l 45.58957441264248 43.480923459307235" fill="#4dd2ff" stroke="none" /><line stroke="#e1ed5e" stroke-width="0.3" x1="56.762969772571076" x2="54.21961505331055" y1="26.818313649435495" y2="22.513508569990535" /><path d="M 56.25429882871897 25.957352633546506 a86.0,86.0 0 0,1 42.265352541879196,-11.944610805530505" fill="none" id="id108" stroke="none" /><text fill="#e1ed5e" style="font-size:6.75px; font-family:Arial;" text-anchor="middle"><textPath startOffset="22.20632615414155" xlink:href="#id108">December</textPath></text><path d="M 92.57280143429618 80.3572730644239 l -14.611391728246867 -38.642776994274605 a62.312915438946206,62.312915438946206 0 0,0 1.0065543928347562,-0.3707224775429953 l 13.944055009639541 38.88856273962392" fill="#32ff48" stroke="none" /></svg>