<?xml version="1.0" encoding="utf-8" ?>
<svg baseProfile="full" height="200mm" version="1.1" viewBox="0,0,200,200" width="200mm" xmlns="http://www.w3.org/2000/svg" xmlns:ev="http://www.w3.org/2001/xml-events" xmlns:xlink="http://www.w3.org/1999/xlink"><defs /><rect fill="#1a1a1a" height="200" width="200" x="0" y="0" /><text alignment-baseline="middle" fill="#e1ed5e" style="dominant-baseline: central; font-size:9.0px; font-family:Arial;" text-anchor="middle" x="100.0" y="100.0">2020</text><line stroke="#e1ed5e" stroke-width="0.3" x1="100.0" x2="100.0" y1="15.0" y2="10.0" /><path d="M 100.0 14.0 a86.0,86.0 0 0,1 42.35913384403234,11.155469271406648" fill="none" id="id85" stroke="none" /><text fill="#e1ed5e" style="font-size:6.75px; font-family:Arial;" text-anchor="middle"><textPath startOffset="22.145653131862478" xlink:href="#id85">January</textPath></text><line stroke="#e1ed5e" stroke-width="0.3" x1="143.13028292997686" x2="145.6673583964461" y1="26.7553504044142" y2="22.446841604673864" /><path d="M 143.63769802327073 25.89364864446614 a86.0,86.0 0 0,1 29.32050498858742,28.57503671076993" fill="none" id="id86" stroke="none" /><text fill="#e1ed5e" style="font-size:6.75px; font-family:Arial;" text-anchor="middle"><textPath startOffset="20.669276256404974" xlink:href="#id86">February</textPath></text><line stroke="#e1ed5e" stroke-width="0.3" x1="172.87174338648825" x2="177.1583165268699" y1="56.24261187166439" y2="53.66864786411523" /><path d="M 173.72905801456457 55.72781907015455 a86.0,86.0 0 0,1 12.242430191666344,42.057860355516425" fill="none" id="id87" stroke="none" /><text fill="#e1ed5e" style="font-size:6.75px; font-family:Arial;" text-anchor="middle"><textPath startOffset="22.145653131862474" xlink:href="#id87">March</textPath></text><line stroke="#e1ed5e" stroke-width="0.3" x1="184.99686870605535" x2="189.99668451229388" y1="99.2704041080226" y2="99.22748670261217" /><path d="M 185.99683186730306 99.26182062694052 a86.0,86.0 0 0,1 -10.086455211305974,41.156179273409016" fill="none" id="id88" stroke="none" /><text fill="#e1ed5e" style="font-size:6.75px; font-family:Arial;" text-anchor="middle"><textPath startOffset="21.40746469413373" xlink:href="#id88">April</textPath></text><line stroke="#e1ed5e" stroke-width="0.3" x1="174.33088141563837" x2="178.70328620479359" y1="141.23008692659167" y2="143.65538615756765" /><path d="M 175.20536237346943 141.71514677278685 a86.0,86.0 0 0,1 -30.301960400862466,31.631185727798858" fill="none" id="id89" stroke="none" /><text fill="#e1ed5e" style="font-size:6.75px; font-family:Arial;" text-anchor="middle"><textPath startOffset="22.145653131862474" xlink:href="#id89">May</textPath></text><path d="M 112.7482090630111 116.68781488649013 l 31.183524412725884 40.820234460839735 a72.36831451621708,72.36831451621708 0 0,0 -0.993675580396038,0.7456726804896554 l -30.47819584341908 -41.3495261685934" fill="#37ff7a" stroke="none" /><line stroke="#e1ed5e" stroke-width="0.3" x1="143.1302829299769" x2="145.66735839644613" y1="173.24464959558577" y2="177.55315839532614" /><path d="M 143.63769802327073 174.10635135553383 a86.0,86.0 0 0,1 -40.68552437913181,11.842963189579606" fill="none" id="id90" stroke="none" /><text fill="#e1ed5e" style="font-size:6.75px; font-family:Arial;" text-anchor="middle"><textPath startOffset="21.407464694133747" xlink:href="#id90">June</textPath></text><path d="M 105.3480935250658 120.30758222061773 l 14.049875632921607 53.34966624419651 a76.16870393318774,76.16870393318774 0 0,0 -1.2672829512446502,0.3221383705349537 l -13.13198738845156 -53.58298984656673" fill="#3effb9" stroke="none" /><line stroke="#e1ed5e" stroke-width="0.3" x1="101.45913802915013" x2="101.54496967792366" y1="184.9874750549273" y2="189.98673829345242" /><path d="M 101.47630435890484 185.9873277026323 a86.0,86.0 0 0,1 -42.54439059252881,-10.42667462771756" fill="none" id="id91" stroke="none" /><text fill="#e1ed5e" style="font-size:6.75px; font-family:Arial;" text-anchor="middle"><textPath startOffset="22.145653131862474" xlink:href="#id91">July</textPath></text><path d="M 93.61358852112213 120.00534299687104 l -13.09795330138353 41.02915216437272 a64.06910386823104,64.06910386823104 0 0,0 -1.04486720448353,-0.343468603813506 l 13.800343243514805 -40.79826263915719" fill="#6cff28" stroke="none" /><line stroke="#e1ed5e" stroke-width="0.3" x1="58.13341422392154" x2="55.67067388415222" y1="173.97424548756322" y2="178.32567169271397" /><path d="M 57.64086615596768 174.84453072859336 a86.0,86.0 0 0,1 -31.369924170532247,-30.572349798747897" fill="none" id="id92" stroke="none" /><text fill="#e1ed5e" style="font-size:6.75px; font-family:Arial;" text-anchor="middle"><textPath startOffset="22.145653131862474" xlink:href="#id92">August</textPath></text><line stroke="#e1ed5e" stroke-width="0.3" x1="26.387840678322732" x2="22.057713659400548" y1="142.50000000000003" y2="145.00000000000006" /><path d="M 25.521815274538298 143.00000000000003 a86.0,86.0 0 0,1 -11.493303480769221,-40.785679425670985" fill="none" id="id93" stroke="none" /><text fill="#e1ed5e" style="font-size:6.75px; font-family:Arial;" text-anchor="middle"><textPath startOffset="21.40746469413373" xlink:href="#id93">September</textPath></text><path d="M 80.68587082218212 108.24405325689762 l -57.9005411189603 24.714298024687263 a83.95450094092934,83.95450094092934 0 0,0 -0.5543961673973432,-1.330348980915364 l 58.31626313089412 -23.71671653433062" fill="#4dd3ff" stroke="none" /><path d="M 80.5471966667186 107.91128576633889 l -20.948972322543085 8.519764669147353 a43.6151681706842,43.6151681706842 0 0,0 -0.2761075356279082,-0.6959713565740743 l 21.092138533137117 -8.158892295359713" fill="#ff1302" stroke="none" /><path d="M 80.41425534168474 107.57618678355246 l -54.020382332445735 20.89624437617533 a78.92110786554807,78.92110786554807 0 0,0 -0.477921110469947,-1.2677425259651773 l 54.37113412673011 -19.965833570016006" fill="#44ffe3" stroke="none" /><path d="M 79.73907114497094 105.5222062557868 l -24.46973218747126 6.66933431976101 a46.362330602594646,46.362330602594646 0 0,0 -0.20269284017746897,-0.769657729084663 l 24.58061450845346 -6.248296086303544" fill="#ff4e07" stroke="none" /><path d="M 79.34024301695615 103.76489593502545 l -49.55704524807529 9.030944476233737 a71.37319417956934,71.37319417956934 0 0,0 -0.20931100903385605,-1.2072502778711636 l 49.70477107460138 -8.17890116544198" fill="#35ff69" stroke="none" /><path d="M 79.13060592940153 102.33845913500099 l -51.58217222359492 5.779889987769077 a72.90498646156571,72.90498646156571 0 0,0 -0.12868635353746508,-1.2449237356257894 l 51.673790969614046 -4.893561729860356" fill="#38ff83" stroke="none" /><path d="M 79.03789590574601 101.26102812881392 l -62.886312282761985 3.783084386441755 a84.0,84.0 0 0,0 -0.07423364217370931,-1.440112826493077 l 62.94198751439227 -2.7029997665719474" fill="#4dd2ff" stroke="none" /><line stroke="#e1ed5e" stroke-width="0.3" x1="15.003131293944662" x2="10.003315487706104" y1="100.72959589197737" y2="100.7725132973878" /><path d="M 14.003168132696942 100.73817937305945 a86.0,86.0 0 0,1 10.791469493833604,-42.45332614584628" fill="none" id="id94" stroke="none" /><text fill="#e1ed5e" style="font-size:6.75px; font-family:Arial;" text-anchor="middle"><textPath startOffset="22.145653131862435" xlink:href="#id94">October</textPath></text><line stroke="#e1ed5e" stroke-width="0.3" x1="26.387840678322718" x2="22.05771365940052" y1="57.49999999999999" y2="54.99999999999999" /><path d="M 25.521815274538284 56.99999999999999 a86.0,86.0 0 0,1 29.574782752854787,-30.34633250058573" fill="none" id="id95" stroke="none" /><text fill="#e1ed5e" style="font-size:6.75px; font-family:Arial;" text-anchor="middle"><textPath startOffset="21.40746469413373" xlink:href="#id95">November</textPath></text><path d="M 81.99639281039701 89.18935116829357 l -18.99250372687955 -11.40445278903567 a43.15348146980237,43.15348146980237 0 0,0 0.3868032218046371,-0.6318139934272157 l 18.793932540619522 11.728803898587428" fill="#ff0901" stroke="none" /><path d="M 83.2033758604659 87.39550010848427 l -17.376220182272736 -13.039439567318034 a42.724640665671814,42.724640665671814 0 0,0 0.44524776799666915,-0.5828436209530018 l 17.14982043692176 13.33580410151192" fill="#ff0000" stroke="none" /><line stroke="#e1ed5e" stroke-width="0.3" x1="56.869717070023135" x2="54.33264160355391" y1="26.7553504044142" y2="22.446841604673864" /><path d="M 56.362301976729285 25.89364864446614 a86.0,86.0 0 0,1 42.16139366436587,-11.88097634709845" fill="none" id="id96" stroke="none" /><text fill="#e1ed5e" style="font-size:6.75px; font-family:Arial;" text-anchor="middle"><textPath startOffset="22.145653131862474" xlink:href="#id96">December</textPath></text></svg>