<?xml version="1.0" encoding="utf-8" ?>
<svg baseProfile="full" height="200mm" version="1.1" viewBox="0,0,200,200" width="200mm" xmlns="http://www.w3.org/2000/svg" xmlns:ev="http://www.w3.org/2001/xml-events" xmlns:xlink="http://www.w3.org/1999/xlink"><defs /><rect fill="#1a1a1a" height="200" width="200" x="0" y="0" /><text alignment-baseline="middle" fill="#e1ed5e" style="dominant-baseline: central; font-size:9.0px; font-family:Arial;" text-anchor="middle" x="100.0" y="100.0">2022</text><line stroke="#e1ed5e" stroke-width="0.3" x1="100.0" x2="100.0" y1="15.0" y2="10.0" /><path d="M 100.0 14.0 a86.0,86.0 0 0,1 42.46469731375804,11.215312516191453" fill="none" id="id109" stroke="none" /><text fill="#e1ed5e" style="font-size:6.75px; font-family:Arial;" text-anchor="middle"><textPath startOffset="22.20632615414155" xlink:href="#id109">January</textPath></text><path d="M 100.36148047927253 79.00311137660856 l 0.2170295216775814 -12.606336872803885 a33.60820491441563,33.60820491441563 0 0,0 0.5783385759515598,0.014936779151829107 l -0.433994732824009 12.600733301509697" fill="#ffa90f" stroke="none" /><line stroke="#e1ed5e" stroke-width="0.3" x1="143.23703022742887" x2="145.7803849466894" y1="26.81831364943548" y2="22.513508569990506" /><path d="M 143.74570117128098 25.957352633546492 a86.0,86.0 0 0,1 28.547481713284135,27.462654790039103" fill="none" id="id110" stroke="none" /><text fill="#e1ed5e" style="font-size:6.75px; font-family:Arial;" text-anchor="middle"><textPath startOffset="19.985693538727396" xlink:href="#id110">February</textPath></text><path d="M 111.90073688211348 82.69761687909136 l 0.28836089990795777 -0.4192455321650142 a21.50884066743535,21.50884066743535 0 0,0 0.3032427592992576,0.21244093185721713 l -0.29553479879086625 0.4142197575438615" fill="#ff0400" stroke="none" /><line stroke="#e1ed5e" stroke-width="0.3" x1="172.23445277983987" x2="176.4835382374775" y1="55.19839476539836" y2="52.563006222186495" /><path d="M 173.08426987136738 54.67131705675599 a86.0,86.0 0 0,1 12.851231095245387,41.99856678651699" fill="none" id="id111" stroke="none" /><text fill="#e1ed5e" style="font-size:6.75px; font-family:Arial;" text-anchor="middle"><textPath startOffset="22.20632615414155" xlink:href="#id111">March</textPath></text><line stroke="#e1ed5e" stroke-width="0.3" x1="184.98032266829074" x2="189.97916517819016" y1="98.17113171792111" y2="98.06355123074" /><path d="M 185.9800911702706 98.14961562048488 a86.0,86.0 0 0,1 -9.607161424134198,41.387399972396054" fill="none" id="id112" stroke="none" /><text fill="#e1ed5e" style="font-size:6.75px; font-family:Arial;" text-anchor="middle"><textPath startOffset="21.466115282336823" xlink:href="#id112">April</textPath></text><path d="M 120.99824983174949 100.27111621757518 l 2.4184216045314266 0.03122514129398005 a23.418623175840583,23.418623175840583 0 0,0 -0.008673742050719985,0.40303471028202054 l -2.417525799795699 -0.07284966736611541" fill="#ff1f03" stroke="none" /><path d="M 120.81339534386255 102.79330883721812 l 3.2747212416525415 0.4394913771928748 a24.304081094821562,24.304081094821562 0 0,0 -0.05921625587552495,0.41415835567320125 l -3.2666709347604153 -0.49579520484648537" fill="#ff2b04" stroke="none" /><path d="M 119.67450827220406 107.3425965602758 l 1.4029646023975697 0.523591386439213 a22.497483761359003,22.497483761359003 0 0,0 -0.13852634976647188,0.36164858682803996 l -1.3937439730375911 -0.5476635401003968" fill="#ff1202" stroke="none" /><path d="M 118.64920377521936 109.65438752849418 l 55.94761132565807 28.96316258548255 a84.0,84.0 0 0,0 -0.6757899671004277,1.2783399396554627 l -55.44076885033275 -29.921917540224147" fill="#4dd2ff" stroke="none" /><line stroke="#e1ed5e" stroke-width="0.3" x1="174.80103733775053" x2="179.2010983576182" y1="140.37084112569926" y2="142.7455964860345" /><path d="M 175.68104954172406 140.8457921977663 a86.0,86.0 0 0,1 -30.038265399797805,32.042727171017184" fill="none" id="id113" stroke="none" /><text fill="#e1ed5e" style="font-size:6.75px; font-family:Arial;" text-anchor="middle"><textPath startOffset="22.206326154141568" xlink:href="#id113">May</textPath></text><path d="M 118.30583269289576 110.29060199501025 l 2.1030754663450586 1.1822413627775854 a23.412596331134715,23.412596331134715 0 0,0 -0.2005099388116524,0.3496059793511557 l -2.0824135313810266 -1.2182671879870561" fill="#ff1f03" stroke="none" /><path d="M 118.12598468904814 110.60418214915192 l 0.22215281918571939 0.12996529567943105 a21.25737686988773,21.25737686988773 0 0,0 -0.1874891775615888,0.31424264595056706 l -0.21988276592590336 -0.13377003551610225" fill="#ff0000" stroke="none" /><path d="M 117.94076556474637 110.91462005526583 l 1.9294643214812983 1.1738278337765775 a23.25847389872407,23.25847389872407 0 0,0 -0.21102674786031764,0.3402423099301459 l -1.9089729339530177 -1.206866475071997" fill="#ff1d02" stroke="none" /><path d="M 117.75023020441432 111.22182372390056 l 0.3560702528681521 0.22511018533254779 a21.42126075121953,21.42126075121953 0 0,0 -0.1997227940676599,0.3099742116545698 l -0.35214259542344184 -0.23120599690857055" fill="#ff0200" stroke="none" /><path d="M 117.55443506779139 111.5257021239791 l 0.5239526413367821 0.3440111885001605 a21.62679348128158,21.62679348128158 0 0,0 -0.20699611093625042,0.3094311002485526 l -0.5179534249898107 -0.35297920295451995" fill="#ff0500" stroke="none" /><path d="M 117.35343817320211 111.8261652097733 l 0.46175740535516746 0.31468227264607934 a21.558788720464218,21.558788720464218 0 0,0 -0.2116242452152221,0.3048605089145606 l -0.45627225297780916 -0.3225840437476596" fill="#ff0400" stroke="none" /><path d="M 117.14729908036423 112.12312394758627 l 4.892758278603223 3.4591753942758987 a26.992076266304043,26.992076266304043 0 0,0 -0.2714891406277288,0.37707467122065286 l -4.832489345599892 -3.542883670947683" fill="#ff5107" stroke="none" /><path d="M 116.93607887273984 112.41649034213515 l 0.876811843630075 0.6428244619140284 a22.087208488729292,22.087208488729292 0 0,0 -0.22743380884972536,0.30468475365606684 l -0.8656167680852576 -0.6578220950794103" fill="#ff0c01" stroke="none" /><path d="M 116.71984013943494 112.70617746262583 l 0.8641487428401006 0.6567064750059511 a22.08536465948863,22.08536465948863 0 0,0 -0.23262533818723238,0.3006996078181557 l -0.8527165874347997 -0.6714840769373596" fill="#ff0c01" stroke="none" /><path d="M 116.498646956653 112.99209946851258 l 0.4269121717845867 0.3361781978071531 a21.54338732327751,21.54338732327751 0 0,0 -0.23193209464083672,0.28937094925427365 l -0.42106216508889605 -0.3434769806396771" fill="#ff0400" stroke="none" /><path d="M 116.27256486870786 113.27417163493432 l 0.9844114051269919 0.8030231285893271 a22.27039834681626,22.27039834681626 0 0,0 -0.24487257439257587,0.29496479046471613 l -0.9704428308408726 -0.8198491761678138" fill="#ff0f01" stroke="none" /><path d="M 115.80600337817218 113.82643327865902 l 4.321085465299607 3.7799055490431823 a26.741033492160707,26.741033492160707 0 0,0 -0.3060462262427723,0.3438461795575234 l -4.255380389408496 -3.853725898341572" fill="#ff4d07" stroke="none" /><path d="M 115.07121518719521 114.62390073753431 l 0.7789411590347608 0.755822144970926 a22.08536465948863,22.08536465948863 0 0,0 -0.2670850192544903,0.2705557144074729 l -0.765815514724735 -0.7691183533590636" fill="#ff0c01" stroke="none" /><path d="M 114.81725581225074 114.88116024355365 l 0.5336296176851796 0.5359310760440457 a21.75629537030221,21.75629537030221 0 0,0 -0.26765428309732686,0.2619560497698589 l -0.5243253822120585 -0.5450372287364766" fill="#ff0701" stroke="none" /><path d="M 114.55890576462653 115.13401014063108 l 0.7523877490913295 0.7821084914293946 a22.08525619894506,22.08525619894506 0 0,0 -0.27623835198862606,0.26120060373382764 l -0.7388135627118959 -0.7949437319091437" fill="#ff0c01" stroke="none" /><path d="M 114.29624159901734 115.38237550388516 l 0.7389612368199737 0.7951026253194797 a22.085473120032198,22.085473120032198 0 0,0 -0.280696320284479,0.2564094333343542 l -0.7251653670686308 -0.8077048252404169" fill="#ff0c01" stroke="none" /><path d="M 114.0293411484842 115.62618273729858 l 8.891246189274343 9.903261760151993 a34.308976380186955,34.308976380186955 0 0,0 -0.4428433529427111,0.3907577704581841 l -8.719460483425044 -10.054842672382467" fill="#ffb210" stroke="none" /><path d="M 113.75828350139079 115.86535959552629 l 0.7560636596117802 0.8718545329901009 a22.154020183567404,22.154020183567404 0 0,0 -0.29025408500515687,0.24736082816929097 l -0.7409440980295762 -0.8847397513823387" fill="#ff0d01" stroke="none" /><path d="M 113.48314897796784 116.09983520530334 l 0.6969331328082708 0.8321875405859446 a22.085473120032198,22.085473120032198 0 0,0 -0.2935578701440127,0.24157814181047513 l -0.682505134119567 -0.8440608012535981" fill="#ff0c01" stroke="none" /><path d="M 113.20401910651253 116.32954008644616 l 0.6822323502929799 0.8437234468166455 a22.085039277857923,22.085039277857923 0 0,0 -0.2976668995543185,0.23648458768833192 l -0.6676079580213103 -0.8553419485101034" fill="#ff0c01" stroke="none" /><path d="M 112.92097659922987 116.55440617244103 l 0.6678081603277946 0.8555984484946632 a22.08536465948863,22.08536465948863 0 0,0 -0.30169793531201716,0.23132911173731568 l -0.6529814965222837 -0.8669669020593502" fill="#ff0c01" stroke="none" /><path d="M 112.63410532772338 116.77436683061366 l 0.8692934442560069 1.1541653911496614 a22.44491136141776,22.44491136141776 0 0,0 -0.31061088472624404,0.2297825068629783 l -0.8492975891111986 -1.1689578467524087" fill="#ff1101" stroke="none" /><path d="M 112.34349029814194 116.9893568818739 l 0.6393001218741265 0.8799211295025653 a22.087642330903567,22.087642330903567 0 0,0 -0.3095137871539564,0.22082986903360607 l -0.6240590068712856 -0.8907952603803907" fill="#ff0c01" stroke="none" /><path d="M 112.04921762599082 117.19931262002967 l 7.470100818489078 10.662982715424901 a34.01927826831585,34.01927826831585 0 0,0 -0.4824956105864875,0.3318648805912568 l -7.285448323279707 -10.789988385381251" fill="#ffae10" stroke="none" /><path d="M 111.7513745106137 117.40417183066458 l 0.6071156358270117 0.8991582080439264 a22.08493081731436,22.08493081731436 0 0,0 -0.31689278246829994,0.21001925658471446 l -0.5915481546187477 -0.9094754857199594" fill="#ff0c01" stroke="none" /><path d="M 111.45004920935366 117.60387380957326 l 0.5913707433957285 0.909202724902488 a22.084605435683653,22.084605435683653 0 0,0 -0.3204562462317184,0.2045303382076072 l -0.5756326951170796 -0.9192474919339041" fill="#ff0c01" stroke="none" /><path d="M 111.1453310114006 117.79835938074945 l 0.8641398019097587 1.3799743348911748 a22.628209680048297,22.628209680048297 0 0,0 -0.3319028214165692,0.20388182126147017 l -0.8402577805608807 -1.394644622981023" fill="#ff1402" stroke="none" /><line stroke="#e1ed5e" stroke-width="0.3" x1="143.8653032363475" x2="146.44561519142675" y1="172.8068346515853" y2="177.08958963109032" /><path d="M 144.38136562736335 173.6633856474863 a86.0,86.0 0 0,1 -40.68145358897372,12.25698825130547" fill="none" id="id114" stroke="none" /><text fill="#e1ed5e" style="font-size:6.75px; font-family:Arial;" text-anchor="middle"><textPath startOffset="21.466115282336833" xlink:href="#id114">June</textPath></text><path d="M 110.8373102113329 117.98757091392108 l 0.7840614834863329 1.3013710284251392 a22.51931529430566,22.51931529430566 0 0,0 -0.33374925914427933,0.19718494510876797 l -0.7615443533136713 -1.3146745458276565" fill="#ff1202" stroke="none" /><path d="M 110.5260780823613 118.17145234162733 l 0.5446825296865835 0.9403001338269038 a22.08666618601145,22.08666618601145 0 0,0 -0.3306176547701217,0.18773333296923198 l -0.5284161079952626 -0.9495366325907643" fill="#ff0c01" stroke="none" /><path d="M 110.21172684928248 118.3499491758327 l 2.391453397028569 4.297319046967073 a25.917926427020383,25.917926427020383 0 0,0 -0.39170279102871286,0.21358759310468417 l -2.3171277941312076 -4.337847291831527" fill="#ff4206" stroke="none" /><path d="M 109.57404056367764 118.69057910512821 l 5.443025696854559 10.625952718882923 a32.93890279383137,32.93890279383137 0 0,0 -0.5068608439544766,0.2541505494172913 l -5.259310945217322 -10.718071109209516" fill="#ffa00e" stroke="none" /><path d="M 109.2508944713604 118.85261126421891 l 0.4788879828837638 0.9759368684146125 a22.087100028185723,22.087100028185723 0 0,0 -0.34275743332368713,0.1645443973302906 l -0.4620178815598439 -0.9840355422444632" fill="#ff0c01" stroke="none" /><path d="M 108.92500713936063 119.00905698771935 l 0.5074222129313346 1.0807406214733175 a22.193933663600564,22.193933663600564 0 0,0 -0.3472103575384587,0.1593872455532767 l -0.4887438596254564 -1.0893149373606685" fill="#ff0d01" stroke="none" /><path d="M 108.59647513512805 119.15986991738527 l 0.44398969806091626 0.9895666218756077 a22.084605435683653,22.084605435683653 0 0,0 -0.34817886990932606,0.1526313845344602 l -0.4268901534938364 -0.9970625597045225" fill="#ff0c01" stroke="none" /><path d="M 108.2653958097858 119.30500536409082 l 0.42706090955523296 0.997461384728402 a22.085039277857923,22.085039277857923 0 0,0 -0.35076147225167614,0.14661832384879833 l -0.4098279778060957 -1.0046647515971734" fill="#ff0c01" stroke="none" /><path d="M 107.93186726928326 119.44442032107085 l 0.4096641121612322 1.0042630463786244 a22.084605435683653,22.084605435683653 0 0,0 -0.3532263576084465,0.1405560574536192 l -0.39231667851091945 -1.0111659482383124" fill="#ff0c01" stroke="none" /><path d="M 107.2578585660854 119.70592522655815 l 2.764878190787497 7.506963988358141 a28.999941233059047,28.999941233059047 0 0,0 -0.469910130690343,0.1684930542639136 l -2.635248499467419 -7.5534445836620145" fill="#ff6c0a" stroke="none" /><path d="M 106.91757812671514 119.82793768551818 l 0.3576355086114082 1.0250949752905645 a22.085690041119335,22.085690041119335 0 0,0 -0.3600285795258099,0.12214124160330808 l -0.33993719614837126 -1.0310992037919955" fill="#ff0c01" stroke="none" /><path d="M 106.57524785965236 119.94407469862006 l 0.2039623176890232 0.6186595222751987 a21.651414024671602,21.651414024671602 0 0,0 -0.3549580808234804,0.11364636827293602 l -0.19328289177460242 -0.6220787372078412" fill="#ff0600" stroke="none" /><path d="M 106.2309692047433 120.05430185196036 l 0.32194506315569693 1.0361764380664706 a22.085039277857923,22.085039277857923 0 0,0 -0.3640087992636547,0.10967286520842698 l -0.30406128945179645 -1.0415646723806231" fill="#ff0c01" stroke="none" /><path d="M 105.88484417918355 120.15858648285463 l 0.30406128945179645 1.0415646723806231 a22.085039277857923,22.085039277857923 0 0,0 -0.36584270552153986,0.1033908028844007 l -0.2860874158256508 -1.0466442686035429" fill="#ff0c01" stroke="none" /><path d="M 105.18746579009965 120.34920634021253 l 3.014171580765513 11.823885096044883 a33.20202807252822,33.20202807252822 0 0,0 -0.5550220426059393,0.13641091445333278 l -2.810196253416363 -11.874017268812246" fill="#ffa30f" stroke="none" /><path d="M 104.48393922423573 120.51570834832081 l 0.14075793768593348 0.6440205035936751 a21.659223183808525,21.659223183808525 0 0,0 -0.36491514767801086,0.07647151719944978 l -0.12965132857854458 -0.6463480015196661" fill="#ff0600" stroke="none" /><path d="M 104.13013068566511 120.58985236759428 l 0.5532045994333611 2.7578790838122713 a23.81281573690198,23.81281573690198 0 0,0 -0.4025867035636556,0.07715669990240467 l -0.505650281298001 -2.766992982063144" fill="#ff2503" stroke="none" /><path d="M 103.7750983002368 120.6578951692458 l 0.14824011292930916 0.8111917807752793 a21.82462551275028,21.82462551275028 0 0,0 -0.37013632493349297,0.06435294452362914 l -0.13425481652376628 -0.8136233038199147" fill="#ff0801" stroke="none" /><path d="M 103.41894727170886 120.7198165907248 l 0.2713879093981014 1.6446898009217779 a22.666930094102206,22.666930094102206 0 0,0 -0.38551497674791085,0.06020951085208801 l -0.24303706904167346 -1.6491176191209715" fill="#ff1402" stroke="none" /><path d="M 103.06178313531738 120.77559828337769 l 0.10944495769649416 0.7426340713082323 a21.750655422036655,21.750655422036655 0 0,0 -0.3708708490275462,0.051399320292345174 l -0.09664551748211753 -0.7444079570931801" fill="#ff0701" stroke="none" /><line stroke="#e1ed5e" stroke-width="0.3" x1="102.19456741930631" x2="102.32365962044197" y1="184.97166512339345" y2="189.96999836594603" /><path d="M 102.22038585953345 185.97133177190398 a86.0,86.0 0 0,1 -42.740103519485714,-10.115201625700543" fill="none" id="id115" stroke="none" /><text fill="#e1ed5e" style="font-size:6.75px; font-family:Arial;" text-anchor="middle"><textPath startOffset="22.20632615414155" xlink:href="#id115">July</textPath></text><line stroke="#e1ed5e" stroke-width="0.3" x1="58.666819895761336" x2="56.23545636021788" y1="174.27360380694188" y2="178.64263932499728" /><path d="M 58.180547188652646 175.14741091055294 a86.0,86.0 0 0,1 -31.652253787137756,-30.449443065178592" fill="none" id="id116" stroke="none" /><text fill="#e1ed5e" style="font-size:6.75px; font-family:Arial;" text-anchor="middle"><textPath startOffset="22.20632615414155" xlink:href="#id116">August</textPath></text><line stroke="#e1ed5e" stroke-width="0.3" x1="26.63291911575756" x2="22.317208475507996" y1="142.92168965132927" y2="145.44649492493687" /><path d="M 25.769776987707644 143.4266507060508 a86.0,86.0 0 0,1 -11.730757126820373,-40.83630448921669" fill="none" id="id117" stroke="none" /><text fill="#e1ed5e" style="font-size:6.75px; font-family:Arial;" text-anchor="middle"><textPath startOffset="21.46611528233685" xlink:href="#id117">September</textPath></text><line stroke="#e1ed5e" stroke-width="0.3" x1="15.007084014347285" x2="10.007500721073583" y1="101.09737516637583" y2="101.16192664675087" /><path d="M 14.007167355692545 101.11028546245083 a86.0,86.0 0 0,1 10.666146001902534,-42.60595125391555" fill="none" id="id118" stroke="none" /><text fill="#e1ed5e" style="font-size:6.75px; font-family:Arial;" text-anchor="middle"><textPath startOffset="22.20632615414155" xlink:href="#id118">October</textPath></text><line stroke="#e1ed5e" stroke-width="0.3" x1="26.266209847984243" x2="21.928928074336255" y1="57.711370442889674" y2="55.22380399835377" /><path d="M 25.398753493254645 57.213857153982495 a86.0,86.0 0 0,1 29.58750427330803,-30.492523968695096" fill="none" id="id119" stroke="none" /><text fill="#e1ed5e" style="font-size:6.75px; font-family:Arial;" text-anchor="middle"><textPath startOffset="21.46611528233685" xlink:href="#id119">November</textPath></text><line stroke="#e1ed5e" stroke-width="0.3" x1="56.762969772571076" x2="54.21961505331055" y1="26.818313649435495" y2="22.513508569990535" /><path d="M 56.25429882871897 25.957352633546506 a86.0,86.0 0 0,1 42.265352541879196,-11.944610805530505" fill="none" id="id120" stroke="none" /><text fill="#e1ed5e" style="font-size:6.75px; font-family:Arial;" text-anchor="middle"><textPath startOffset="22.20632615414155" xlink:href="#id120">December</textPath></text></svg>