<?xml version="1.0" encoding="utf-8" ?>
<svg baseProfile="full" height="200mm" version="1.1" viewBox="0,0,200,200" width="200mm" xmlns="http://www.w3.org/2000/svg" xmlns:ev="http://www.w3.org/2001/xml-events" xmlns:xlink="http://www.w3.org/1999/xlink"><defs /><rect fill="#1a1a1a" height="200" width="200" x="0" y="0" /><text alignment-baseline="middle" fill="#e1ed5e" style="dominant-baseline: central; font-size:9.0px; font-family:Arial;" text-anchor="middle" x="100.0" y="100.0">2019</text><line stroke="#e1ed5e" stroke-width="0.3" x1="100.0" x2="100.0" y1="15.0" y2="10.0" /><path d="M 100.0 14.0 a86.0,86.0 0 0,1 42.46469731375804,11.215312516191453" fill="none" id="id73" stroke="none" /><text fill="#e1ed5e" style="font-size:6.75px; font-family:Arial;" text-anchor="middle"><textPath startOffset="22.20632615414155" xlink:href="#id73">January</textPath></text><path d="M 107.76421540070413 80.48803036053334 l 0.7525636784144798 -1.8912406324606852 a23.03547125254547,23.03547125254547 0 0,0 0.36715922856476,0.14977346815077108 l -0.7850067765676274 1.8780062781263347" fill="#ff1702" stroke="none" /><line stroke="#e1ed5e" stroke-width="0.3" x1="143.23703022742887" x2="145.7803849466894" y1="26.81831364943548" y2="22.513508569990506" /><path d="M 143.74570117128098 25.957352633546492 a86.0,86.0 0 0,1 28.547481713284135,27.462654790039103" fill="none" id="id74" stroke="none" /><text fill="#e1ed5e" style="font-size:6.75px; font-family:Arial;" text-anchor="middle"><textPath startOffset="19.985693538727396" xlink:href="#id74">February</textPath></text><path d="M 116.60985879189232 87.15038557335679 l 14.586980009952063 -11.284687674077563 a39.44245541440237,39.44245541440237 0 0,0 0.410810189322261,0.540578054518979 l -14.779066139498436 11.031924843677551" fill="#fff016" stroke="none" /><line stroke="#e1ed5e" stroke-width="0.3" x1="172.23445277983987" x2="176.4835382374775" y1="55.19839476539836" y2="52.563006222186495" /><path d="M 173.08426987136738 54.67131705675599 a86.0,86.0 0 0,1 12.851231095245387,41.99856678651699" fill="none" id="id75" stroke="none" /><text fill="#e1ed5e" style="font-size:6.75px; font-family:Arial;" text-anchor="middle"><textPath startOffset="22.20632615414155" xlink:href="#id75">March</textPath></text><path d="M 118.89224826269711 90.83032412892265 l 1.2369774220344711 -0.6003881519116577 a22.37498330010911,22.37498330010911 0 0,0 0.16519322969568853,0.3479390712650896 l -1.247128845571916 0.5790066650060277" fill="#ff0d01" stroke="none" /><path d="M 120.98425023603335 99.18683210126433 l 10.624122157614279 -0.4116990120515891 a31.63209611019553,31.63209611019553 0 0,0 0.016400948926486202,0.5442676487683433 l -10.62963480099641 0.22876121585824663" fill="#ff8d0d" stroke="none" /><line stroke="#e1ed5e" stroke-width="0.3" x1="184.98032266829074" x2="189.97916517819016" y1="98.17113171792111" y2="98.06355123074" /><path d="M 185.9800911702706 98.14961562048488 a86.0,86.0 0 0,1 -9.607161424134198,41.387399972396054" fill="none" id="id76" stroke="none" /><text fill="#e1ed5e" style="font-size:6.75px; font-family:Arial;" text-anchor="middle"><textPath startOffset="21.466115282336823" xlink:href="#id76">April</textPath></text><path d="M 119.9155931802556 106.66101706037122 l 2.8069353473103087 0.9388143283790971 a23.9597733675317,23.9597733675317 0 0,0 -0.1341851922163768,0.3900049792769682 l -2.790359324150701 -0.9869920107453656" fill="#ff2403" stroke="none" /><line stroke="#e1ed5e" stroke-width="0.3" x1="174.80103733775053" x2="179.2010983576182" y1="140.37084112569926" y2="142.7455964860345" /><path d="M 175.68104954172406 140.8457921977663 a86.0,86.0 0 0,1 -30.038265399797805,32.042727171017184" fill="none" id="id77" stroke="none" /><text fill="#e1ed5e" style="font-size:6.75px; font-family:Arial;" text-anchor="middle"><textPath startOffset="22.206326154141568" xlink:href="#id77">May</textPath></text><path d="M 118.30583269289576 110.29060199501025 l 18.895582279484945 10.622129021074805 a42.67654618755361,42.67654618755361 0 0,0 -0.36549007823534735,0.6372627586537045 l -18.70994020509722 -10.945811625586824" fill="#e7ff1a" stroke="none" /><path d="M 114.81725581225074 114.88116024355365 l 15.767212255268047 15.835213695289902 a43.34634142489933,43.34634142489933 0 0,0 -0.5332633034027535,0.5219103794270881 l -15.492298999489499 -16.10427417763956" fill="#dfff1b" stroke="none" /><line stroke="#e1ed5e" stroke-width="0.3" x1="143.8653032363475" x2="146.44561519142675" y1="172.8068346515853" y2="177.08958963109032" /><path d="M 144.38136562736335 173.6633856474863 a86.0,86.0 0 0,1 -40.68145358897372,12.25698825130547" fill="none" id="id78" stroke="none" /><text fill="#e1ed5e" style="font-size:6.75px; font-family:Arial;" text-anchor="middle"><textPath startOffset="21.466115282336833" xlink:href="#id78">June</textPath></text><path d="M 110.8373102113329 117.98757091392108 l 1.08830983405397 1.8063569220240818 a23.108872595640356,23.108872595640356 0 0,0 -0.3424868388607155,0.2023472612175331 l -1.0570551241648725 -1.8248227555353644" fill="#ff1802" stroke="none" /><path d="M 109.89434966115114 118.52300852407294 l 2.9379936984451023 5.500157583236221 a27.23566679774778,27.23566679774778 0 0,0 -0.4154205643369372,0.21732840527269906 l -2.8428822315816693 -5.5499154074536365" fill="#ff5207" stroke="none" /><path d="M 109.2508944713604 118.85261126421891 l 2.539061454227353 5.174411914513104 a26.7637983768864,26.7637983768864 0 0,0 -0.4153325165344386,0.1993848476519949 l -2.4496162696926813 -5.217351038664659" fill="#ff4b07" stroke="none" /><path d="M 108.59647513512805 119.15986991738527 l 20.638515753346987 45.99923467540454 a71.41704000855357,71.41704000855357 0 0,0 -1.125938353522482,0.493578285906154 l -19.843656725166753 -46.347677514605145" fill="#3effb1" stroke="none" /><path d="M 101.26447882468166 120.96189622390904 l 2.6661135838300964 44.197494789578926 a65.27783539556489,65.27783539556489 0 0,0 -1.122194164092372,0.05800462012506752 l -1.9049313513242447 -44.236839216466194" fill="#36ff6e" stroke="none" /><line stroke="#e1ed5e" stroke-width="0.3" x1="102.19456741930631" x2="102.32365962044197" y1="184.97166512339345" y2="189.96999836594603" /><path d="M 102.22038585953345 185.97133177190398 a86.0,86.0 0 0,1 -42.740103519485714,-10.115201625700543" fill="none" id="id79" stroke="none" /><text fill="#e1ed5e" style="font-size:6.75px; font-family:Arial;" text-anchor="middle"><textPath startOffset="22.20632615414155" xlink:href="#id79">July</textPath></text><path d="M 96.22490169976321 120.6578951692458 l -11.325294900710388 61.97368550773742 a84.0,84.0 0 0,0 -1.4201295417132198,-0.2721712066061275 l 12.390392056995301 -61.76955710278283" fill="#4dd2ff" stroke="none" /><path d="M 91.07499286063937 119.00905698771935 l -3.51178761420744 7.479632211478368 a29.263023070661582,29.263023070661582 0 0,0 -0.45411659594025083,-0.21800356267141185 l 3.6400168781479327 -7.418074372307394" fill="#ff6d0a" stroke="none" /><line stroke="#e1ed5e" stroke-width="0.3" x1="58.666819895761336" x2="56.23545636021788" y1="174.27360380694188" y2="178.64263932499728" /><path d="M 58.180547188652646 175.14741091055294 a86.0,86.0 0 0,1 -31.652253787137756,-30.449443065178592" fill="none" id="id80" stroke="none" /><text fill="#e1ed5e" style="font-size:6.75px; font-family:Arial;" text-anchor="middle"><textPath startOffset="22.20632615414155" xlink:href="#id80">August</textPath></text><path d="M 85.18274418774928 114.88116024355367 l -19.21423358455539 19.29710147086991 a48.23168921346794,48.23168921346794 0 0,0 -0.5832804592937189,-0.5908600257873746 l 19.54355466890464 -18.96350095110187" fill="#a8ff21" stroke="none" /><line stroke="#e1ed5e" stroke-width="0.3" x1="26.63291911575756" x2="22.317208475507996" y1="142.92168965132927" y2="145.44649492493687" /><path d="M 25.769776987707644 143.4266507060508 a86.0,86.0 0 0,1 -11.730757126820373,-40.83630448921669" fill="none" id="id81" stroke="none" /><text fill="#e1ed5e" style="font-size:6.75px; font-family:Arial;" text-anchor="middle"><textPath startOffset="21.46611528233685" xlink:href="#id81">September</textPath></text><line stroke="#e1ed5e" stroke-width="0.3" x1="15.007084014347285" x2="10.007500721073583" y1="101.09737516637583" y2="101.16192664675087" /><path d="M 14.007167355692545 101.11028546245083 a86.0,86.0 0 0,1 10.666146001902534,-42.60595125391555" fill="none" id="id82" stroke="none" /><text fill="#e1ed5e" style="font-size:6.75px; font-family:Arial;" text-anchor="middle"><textPath startOffset="22.20632615414155" xlink:href="#id82">October</textPath></text><path d="M 80.95270993114464 91.15688171328213 l -1.4458899714886184 -0.6712858365274722 a22.594121226247786,22.594121226247786 0 0,0 0.16681111254647032,-0.35134674516040254 l 1.4341206651003966 0.6960749973284069" fill="#ff1101" stroke="none" /><path d="M 81.10775173730289 90.83032412892265 l -4.525552987619882 -2.1965545580828425 a26.030455423755363,26.030455423755363 0 0,0 0.19912057248042037,-0.40141492361849407 l 4.487072402186048 2.274129070200298" fill="#ff4106" stroke="none" /><line stroke="#e1ed5e" stroke-width="0.3" x1="26.266209847984243" x2="21.928928074336255" y1="57.711370442889674" y2="55.22380399835377" /><path d="M 25.398753493254645 57.213857153982495 a86.0,86.0 0 0,1 29.58750427330803,-30.492523968695096" fill="none" id="id83" stroke="none" /><text fill="#e1ed5e" style="font-size:6.75px; font-family:Arial;" text-anchor="middle"><textPath startOffset="21.46611528233685" xlink:href="#id83">November</textPath></text><path d="M 82.15384107792192 88.93136811851018 l -2.334566685905807 -1.447956356429895 a23.74714018955476,23.74714018955476 0 0,0 0.21844248346192374,-0.3455235497608927 l 2.3092966061979205 1.4879275539050032" fill="#ff2103" stroke="none" /><path d="M 85.05521093208273 85.24692304244772 l -0.31951589514478235 -0.31541713762635987 a21.448974807710385,21.448974807710385 0 0,0 0.261640927088028,-0.2605173577978992 l 0.31403916788944114 0.32087034607436843" fill="#ff0000" stroke="none" /><path d="M 87.22198572758235 83.33499621200491 l -0.9448445744867159 -1.2322601992139228 a22.55280277836682,22.55280277836682 0 0,0 0.3101051688467566,-0.23356478402100286 l 0.9234932518815693 1.24834157274078" fill="#ff1001" stroke="none" /><line stroke="#e1ed5e" stroke-width="0.3" x1="56.762969772571076" x2="54.21961505331055" y1="26.818313649435495" y2="22.513508569990535" /><path d="M 56.25429882871897 25.957352633546506 a86.0,86.0 0 0,1 42.265352541879196,-11.944610805530505" fill="none" id="id84" stroke="none" /><text fill="#e1ed5e" style="font-size:6.75px; font-family:Arial;" text-anchor="middle"><textPath startOffset="22.20632615414155" xlink:href="#id84">December</textPath></text></svg>